# xmcd
#
# Track frame offsets: 
#        182
#        17590
#        37212
#        75350
#
# Disc length: 1382 seconds
#
# Revision: 0
# Processed by: cddbd v1.5.2PL0 Copyright (c) Steve Scherf et al.
# Submitted via: ExactAudioCopy v0.99pb4
#
DISCID=23056404
DTITLE=Circuit - Shelter Me
DYEAR=1995
DGENRE=House
TTITLE0=Shelter Me (Original Club Version)
TTITLE1=Shelter Me (Acapella)
TTITLE2=Shelter Me (Nannini Dub)
TTITLE3=Shelter Me (Divazs Dub)
EXTD=
EXTT0=
EXTT1=
EXTT2=
EXTT3=
PLAYORDER=
